<mxfile host="app.diagrams.net" modified="2020-04-23T08:27:58.012Z" agent="5.0 (Windows NT 10.0; Win64; x64) AppleWebKit/537.36 (KHTML, like Gecko) Chrome/81.0.4044.113 Safari/537.36" etag="ebtplywUGz6ktBipcdUx" version="13.0.1" type="github">
  <diagram id="WDBLzovjnun5LBxmzpPb" name="Page-1">
    <mxGraphModel dx="1037" dy="588" grid="1" gridSize="10" guides="1" tooltips="1" connect="1" arrows="1" fold="1" page="1" pageScale="1" pageWidth="827" pageHeight="1169" math="0" shadow="0">
      <root>
        <mxCell id="0" />
        <mxCell id="1" parent="0" />
        <mxCell id="yojJnjs7DkOcNf4OKPWL-17" value="" style="edgeStyle=orthogonalEdgeStyle;rounded=0;orthogonalLoop=1;jettySize=auto;html=1;" parent="1" source="yojJnjs7DkOcNf4OKPWL-1" edge="1">
          <mxGeometry relative="1" as="geometry">
            <mxPoint x="89" y="275" as="targetPoint" />
          </mxGeometry>
        </mxCell>
        <mxCell id="yojJnjs7DkOcNf4OKPWL-1" value="数&lt;br&gt;据&lt;br&gt;预&lt;br&gt;处&lt;br&gt;理" style="rounded=1;whiteSpace=wrap;html=1;" parent="1" vertex="1">
          <mxGeometry x="10" y="200" width="49" height="150" as="geometry" />
        </mxCell>
        <mxCell id="yojJnjs7DkOcNf4OKPWL-2" value="情&lt;br&gt;&lt;br&gt;感&lt;br&gt;&lt;br&gt;演&lt;br&gt;&lt;br&gt;化&lt;br&gt;&lt;br&gt;分&lt;br&gt;&lt;br&gt;析" style="rounded=1;whiteSpace=wrap;html=1;" parent="1" vertex="1">
          <mxGeometry x="769" y="60" width="51" height="370" as="geometry" />
        </mxCell>
        <mxCell id="yojJnjs7DkOcNf4OKPWL-3" value="抓取微博评论" style="rounded=0;whiteSpace=wrap;html=1;" parent="1" vertex="1">
          <mxGeometry x="119" y="100" width="100" height="50" as="geometry" />
        </mxCell>
        <mxCell id="yojJnjs7DkOcNf4OKPWL-4" value="去html标签、空格" style="rounded=0;whiteSpace=wrap;html=1;" parent="1" vertex="1">
          <mxGeometry x="119" y="250" width="100" height="50" as="geometry" />
        </mxCell>
        <mxCell id="yojJnjs7DkOcNf4OKPWL-5" value="分词、去停用词、词性标注" style="rounded=0;whiteSpace=wrap;html=1;" parent="1" vertex="1">
          <mxGeometry x="119" y="400" width="100" height="50" as="geometry" />
        </mxCell>
        <mxCell id="yojJnjs7DkOcNf4OKPWL-26" value="" style="edgeStyle=orthogonalEdgeStyle;rounded=0;orthogonalLoop=1;jettySize=auto;html=1;exitX=1;exitY=0.5;exitDx=0;exitDy=0;" parent="1" source="yojJnjs7DkOcNf4OKPWL-6" edge="1">
          <mxGeometry relative="1" as="geometry">
            <mxPoint x="389" y="135" as="targetPoint" />
          </mxGeometry>
        </mxCell>
        <mxCell id="yojJnjs7DkOcNf4OKPWL-6" value="情感&lt;br&gt;信息&lt;br&gt;的抽&lt;br&gt;取与&lt;br&gt;判别" style="rounded=1;whiteSpace=wrap;html=1;" parent="1" vertex="1">
          <mxGeometry x="309" y="80" width="60" height="110" as="geometry" />
        </mxCell>
        <mxCell id="yojJnjs7DkOcNf4OKPWL-30" value="" style="edgeStyle=orthogonalEdgeStyle;rounded=0;orthogonalLoop=1;jettySize=auto;html=1;" parent="1" source="yojJnjs7DkOcNf4OKPWL-7" edge="1">
          <mxGeometry relative="1" as="geometry">
            <mxPoint x="389" y="395" as="targetPoint" />
          </mxGeometry>
        </mxCell>
        <mxCell id="yojJnjs7DkOcNf4OKPWL-7" value="主题&lt;br&gt;词聚&lt;br&gt;类分&lt;br&gt;析" style="rounded=1;whiteSpace=wrap;html=1;" parent="1" vertex="1">
          <mxGeometry x="309" y="340" width="60" height="110" as="geometry" />
        </mxCell>
        <mxCell id="yojJnjs7DkOcNf4OKPWL-8" value="语义角色标注" style="rounded=0;whiteSpace=wrap;html=1;" parent="1" vertex="1">
          <mxGeometry x="409" y="30" width="100" height="50" as="geometry" />
        </mxCell>
        <mxCell id="yojJnjs7DkOcNf4OKPWL-9" value="筛选情感信息" style="rounded=0;whiteSpace=wrap;html=1;" parent="1" vertex="1">
          <mxGeometry x="409" y="110" width="100" height="50" as="geometry" />
        </mxCell>
        <mxCell id="yojJnjs7DkOcNf4OKPWL-10" value="建立情感单元词表" style="rounded=0;whiteSpace=wrap;html=1;" parent="1" vertex="1">
          <mxGeometry x="409" y="190" width="100" height="50" as="geometry" />
        </mxCell>
        <mxCell id="yojJnjs7DkOcNf4OKPWL-11" value="提取候选主题词" style="rounded=0;whiteSpace=wrap;html=1;" parent="1" vertex="1">
          <mxGeometry x="409" y="310" width="100" height="50" as="geometry" />
        </mxCell>
        <mxCell id="yojJnjs7DkOcNf4OKPWL-12" value="聚类分析修正主题词" style="rounded=0;whiteSpace=wrap;html=1;" parent="1" vertex="1">
          <mxGeometry x="409" y="430" width="100" height="50" as="geometry" />
        </mxCell>
        <mxCell id="yojJnjs7DkOcNf4OKPWL-13" value="建立情感值计算规则" style="rounded=0;whiteSpace=wrap;html=1;" parent="1" vertex="1">
          <mxGeometry x="619" y="70" width="100" height="50" as="geometry" />
        </mxCell>
        <mxCell id="yojJnjs7DkOcNf4OKPWL-14" value="计算情感值" style="rounded=0;whiteSpace=wrap;html=1;" parent="1" vertex="1">
          <mxGeometry x="619" y="170" width="100" height="50" as="geometry" />
        </mxCell>
        <mxCell id="yojJnjs7DkOcNf4OKPWL-15" value="建立主题情感词表" style="rounded=0;whiteSpace=wrap;html=1;" parent="1" vertex="1">
          <mxGeometry x="619" y="280" width="100" height="50" as="geometry" />
        </mxCell>
        <mxCell id="yojJnjs7DkOcNf4OKPWL-16" value="引入时间节点进行演化分析" style="rounded=0;whiteSpace=wrap;html=1;" parent="1" vertex="1">
          <mxGeometry x="619" y="380" width="100" height="50" as="geometry" />
        </mxCell>
        <mxCell id="yojJnjs7DkOcNf4OKPWL-20" value="" style="shape=flexArrow;endArrow=classic;html=1;" parent="1" edge="1">
          <mxGeometry width="50" height="50" relative="1" as="geometry">
            <mxPoint x="168.5" y="170" as="sourcePoint" />
            <mxPoint x="168.5" y="240" as="targetPoint" />
          </mxGeometry>
        </mxCell>
        <mxCell id="yojJnjs7DkOcNf4OKPWL-21" value="" style="shape=flexArrow;endArrow=classic;html=1;" parent="1" edge="1">
          <mxGeometry width="50" height="50" relative="1" as="geometry">
            <mxPoint x="168.5" y="320" as="sourcePoint" />
            <mxPoint x="168.5" y="390" as="targetPoint" />
          </mxGeometry>
        </mxCell>
        <mxCell id="yojJnjs7DkOcNf4OKPWL-22" value="" style="endArrow=none;html=1;exitX=0;exitY=0.5;exitDx=0;exitDy=0;entryX=0;entryY=0.5;entryDx=0;entryDy=0;" parent="1" source="yojJnjs7DkOcNf4OKPWL-3" target="yojJnjs7DkOcNf4OKPWL-5" edge="1">
          <mxGeometry width="50" height="50" relative="1" as="geometry">
            <mxPoint x="48.289321881345245" y="175" as="sourcePoint" />
            <mxPoint x="89" y="430" as="targetPoint" />
            <Array as="points">
              <mxPoint x="89" y="125" />
              <mxPoint x="89" y="425" />
            </Array>
          </mxGeometry>
        </mxCell>
        <mxCell id="yojJnjs7DkOcNf4OKPWL-23" value="" style="endArrow=none;html=1;entryX=1;entryY=0.5;entryDx=0;entryDy=0;exitX=1;exitY=0.5;exitDx=0;exitDy=0;" parent="1" source="yojJnjs7DkOcNf4OKPWL-5" target="yojJnjs7DkOcNf4OKPWL-3" edge="1">
          <mxGeometry width="50" height="50" relative="1" as="geometry">
            <mxPoint x="259" y="430" as="sourcePoint" />
            <mxPoint x="259" y="110" as="targetPoint" />
            <Array as="points">
              <mxPoint x="249" y="425" />
              <mxPoint x="249" y="125" />
            </Array>
          </mxGeometry>
        </mxCell>
        <mxCell id="yojJnjs7DkOcNf4OKPWL-24" value="" style="shape=flexArrow;endArrow=classic;html=1;fillColor=#dae8fc;strokeColor=#6c8ebf;" parent="1" edge="1">
          <mxGeometry width="50" height="50" relative="1" as="geometry">
            <mxPoint x="257" y="149" as="sourcePoint" />
            <mxPoint x="300" y="149" as="targetPoint" />
          </mxGeometry>
        </mxCell>
        <mxCell id="yojJnjs7DkOcNf4OKPWL-25" value="" style="shape=flexArrow;endArrow=classic;html=1;fillColor=#dae8fc;strokeColor=#6c8ebf;" parent="1" edge="1">
          <mxGeometry width="50" height="50" relative="1" as="geometry">
            <mxPoint x="338.5" y="220" as="sourcePoint" />
            <mxPoint x="338.5" y="290" as="targetPoint" />
          </mxGeometry>
        </mxCell>
        <mxCell id="yojJnjs7DkOcNf4OKPWL-27" value="" style="endArrow=none;html=1;entryX=0;entryY=0.5;entryDx=0;entryDy=0;exitX=0;exitY=0.5;exitDx=0;exitDy=0;" parent="1" source="yojJnjs7DkOcNf4OKPWL-10" target="yojJnjs7DkOcNf4OKPWL-8" edge="1">
          <mxGeometry width="50" height="50" relative="1" as="geometry">
            <mxPoint x="389" y="150" as="sourcePoint" />
            <mxPoint x="419" y="40" as="targetPoint" />
            <Array as="points">
              <mxPoint x="389" y="215" />
              <mxPoint x="389" y="140" />
              <mxPoint x="389" y="55" />
            </Array>
          </mxGeometry>
        </mxCell>
        <mxCell id="yojJnjs7DkOcNf4OKPWL-28" value="" style="endArrow=none;html=1;entryX=0;entryY=0.5;entryDx=0;entryDy=0;" parent="1" target="yojJnjs7DkOcNf4OKPWL-9" edge="1">
          <mxGeometry width="50" height="50" relative="1" as="geometry">
            <mxPoint x="389" y="135" as="sourcePoint" />
            <mxPoint x="429" y="130" as="targetPoint" />
          </mxGeometry>
        </mxCell>
        <mxCell id="yojJnjs7DkOcNf4OKPWL-31" value="" style="endArrow=none;html=1;entryX=0;entryY=0.5;entryDx=0;entryDy=0;exitX=0;exitY=0.5;exitDx=0;exitDy=0;" parent="1" source="yojJnjs7DkOcNf4OKPWL-12" target="yojJnjs7DkOcNf4OKPWL-11" edge="1">
          <mxGeometry width="50" height="50" relative="1" as="geometry">
            <mxPoint x="409" y="480" as="sourcePoint" />
            <mxPoint x="409" y="320" as="targetPoint" />
            <Array as="points">
              <mxPoint x="389" y="455" />
              <mxPoint x="389" y="405" />
              <mxPoint x="389" y="335" />
            </Array>
          </mxGeometry>
        </mxCell>
        <mxCell id="yojJnjs7DkOcNf4OKPWL-32" value="" style="endArrow=none;html=1;entryX=1;entryY=0.5;entryDx=0;entryDy=0;" parent="1" target="yojJnjs7DkOcNf4OKPWL-8" edge="1">
          <mxGeometry width="50" height="50" relative="1" as="geometry">
            <mxPoint x="509" y="455" as="sourcePoint" />
            <mxPoint x="559" y="40" as="targetPoint" />
            <Array as="points">
              <mxPoint x="539" y="455" />
              <mxPoint x="539" y="55" />
            </Array>
          </mxGeometry>
        </mxCell>
        <mxCell id="yojJnjs7DkOcNf4OKPWL-33" value="" style="shape=flexArrow;endArrow=classic;html=1;fillColor=#dae8fc;strokeColor=#6c8ebf;" parent="1" edge="1">
          <mxGeometry width="50" height="50" relative="1" as="geometry">
            <mxPoint x="542" y="249" as="sourcePoint" />
            <mxPoint x="592" y="249" as="targetPoint" />
          </mxGeometry>
        </mxCell>
        <mxCell id="yojJnjs7DkOcNf4OKPWL-34" value="" style="endArrow=none;html=1;exitX=0;exitY=0.5;exitDx=0;exitDy=0;entryX=0;entryY=0.5;entryDx=0;entryDy=0;" parent="1" target="yojJnjs7DkOcNf4OKPWL-16" edge="1">
          <mxGeometry width="50" height="50" relative="1" as="geometry">
            <mxPoint x="619" y="95" as="sourcePoint" />
            <mxPoint x="619" y="395" as="targetPoint" />
            <Array as="points">
              <mxPoint x="599" y="95" />
              <mxPoint x="599" y="405" />
            </Array>
          </mxGeometry>
        </mxCell>
        <mxCell id="yojJnjs7DkOcNf4OKPWL-37" value="" style="endArrow=none;html=1;entryX=0;entryY=0.5;entryDx=0;entryDy=0;" parent="1" target="yojJnjs7DkOcNf4OKPWL-14" edge="1">
          <mxGeometry width="50" height="50" relative="1" as="geometry">
            <mxPoint x="599" y="195" as="sourcePoint" />
            <mxPoint x="639" y="190" as="targetPoint" />
          </mxGeometry>
        </mxCell>
        <mxCell id="yojJnjs7DkOcNf4OKPWL-38" value="" style="endArrow=none;html=1;entryX=0;entryY=0.5;entryDx=0;entryDy=0;" parent="1" target="yojJnjs7DkOcNf4OKPWL-15" edge="1">
          <mxGeometry width="50" height="50" relative="1" as="geometry">
            <mxPoint x="599" y="305" as="sourcePoint" />
            <mxPoint x="629" y="205" as="targetPoint" />
          </mxGeometry>
        </mxCell>
        <mxCell id="yojJnjs7DkOcNf4OKPWL-39" value="" style="shape=flexArrow;endArrow=classic;html=1;endWidth=8;endSize=4.6;" parent="1" edge="1">
          <mxGeometry width="50" height="50" relative="1" as="geometry">
            <mxPoint x="729" y="95" as="sourcePoint" />
            <mxPoint x="759" y="94.5" as="targetPoint" />
          </mxGeometry>
        </mxCell>
        <mxCell id="yojJnjs7DkOcNf4OKPWL-40" value="" style="shape=flexArrow;endArrow=classic;html=1;endWidth=8;endSize=4.6;" parent="1" edge="1">
          <mxGeometry width="50" height="50" relative="1" as="geometry">
            <mxPoint x="729" y="200.5" as="sourcePoint" />
            <mxPoint x="759" y="200" as="targetPoint" />
          </mxGeometry>
        </mxCell>
        <mxCell id="yojJnjs7DkOcNf4OKPWL-41" value="" style="shape=flexArrow;endArrow=classic;html=1;endWidth=8;endSize=4.6;" parent="1" edge="1">
          <mxGeometry width="50" height="50" relative="1" as="geometry">
            <mxPoint x="729" y="305" as="sourcePoint" />
            <mxPoint x="759" y="304.5" as="targetPoint" />
          </mxGeometry>
        </mxCell>
        <mxCell id="yojJnjs7DkOcNf4OKPWL-42" value="" style="shape=flexArrow;endArrow=classic;html=1;endWidth=8;endSize=4.6;" parent="1" edge="1">
          <mxGeometry width="50" height="50" relative="1" as="geometry">
            <mxPoint x="729" y="405" as="sourcePoint" />
            <mxPoint x="759" y="404.5" as="targetPoint" />
          </mxGeometry>
        </mxCell>
      </root>
    </mxGraphModel>
  </diagram>
</mxfile>
